<svg xmlns="http://www.w3.org/2000/svg" viewBox="0 0 458.63 166.39">
    <path d="M87.7,75.37c4.36,3,9.21,5.55,13.09,9.14,10.32,9.54,13.11,22,12.38,35.52-.53,9.89-2.94,19.27-9.52,27.08-8.23,9.78-19.32,14.26-31.49,16.54-20,3.74-40,3-60.07.89-3-.32-5.94-.73-8.93-.92-2.16-.14-3.26-1-3.09-3.25,0-.5,0-1,0-1.5Q.09,83.13,0,7.38C0,3.7,1.29,2.91,4.65,2.47,20.17.44,35.74-.61,51.36.38c13,.83,25.87,2.84,36.81,10.86,9.1,6.67,13.75,15.74,14.65,27,.95,11.78-1.67,22.3-9.6,31.27C91.42,71.56,89.48,73.49,87.7,75.37ZM38.37,115c0,5.49,0,11,0,16.47,0,1.92.49,3.24,2.67,3.12,6.07-.34,12.27-.08,18.18-1.26,8.88-1.76,14.24-8.36,14.33-17.24.12-10.65-3.49-15.4-11.9-18.57-7-2.63-14.24-2.11-21.45-1.88-.63,0-1.7,1.86-1.73,2.88C38.28,104,38.37,109.47,38.37,115Zm0-68c0,4.75.05,9.5,0,14.24,0,1.86.53,2.92,2.54,2.72,4.56-.46,9.17-.63,13.66-1.49A12.65,12.65,0,0,0,65.1,51.61c1.16-6.58.84-13-5.36-17.54-6-4.42-12.9-4.06-19.76-3.72-.58,0-1.5,1.77-1.53,2.74C38.29,37.72,38.38,42.35,38.37,47Z M293.2,47.44A116.77,116.77,0,0,1,328.69,47c2.46.31,2.18,1.93,2.18,3.54q0,12.37,0,24.73c0,26.23,0,52.47.06,78.7,0,3.26-.89,4.86-4.19,5.81-21.52,6.2-43.21,8.79-65.39,4-16.6-3.56-26.89-13.8-30.75-30.05a102.16,102.16,0,0,1-2.36-21.87c-.31-20,0-40-.2-60,0-3.76,1.11-5.22,4.73-5.19q14.74.13,29.49.14c3.08,0,3.89,1.43,3.87,4.41q-.18,30.73,0,61.46a41.37,41.37,0,0,0,1.25,9.58c1.76,7.15,7,10.27,13.92,11,11.93,1.17,11.93,1.14,11.93-10.56q0-35.6,0-71.2Z M389.27,117.71A18.11,18.11,0,0,0,402,133.09c7.22,2.3,14.59,2.15,21.87.86,6.11-1.08,12-3.11,18.11-4.46a4,4,0,0,1,3.44,1.39c3.91,6.52,6.77,19.47,6.39,28.57-6.12,1.54-12.42,3.39-18.83,4.69-13.48,2.74-27.08,3.2-40.53.13-21.4-4.88-34.88-18.07-39.56-39.67C349,106.78,350,89.24,358.4,72.79,366.24,57.5,379,48.57,396,45.6c12.41-2.17,24.42-1.49,35.79,4.18,14.91,7.45,22.55,20.19,25.65,36.13,1.88,9.7,1.12,19.36,0,29.07-.35,3.06-2.32,2.73-4.3,2.73H389.27Zm35.3-26.33A19.5,19.5,0,0,0,420,78.79c-4.76-5.56-11-6.67-17.74-5.08-7.35,1.74-11.7,6.61-13.52,14-.74,3-.2,4.1,3,4.06,9.87-.13,19.75,0,29.62-.06C422.36,91.69,423.32,91.51,424.57,91.37Z M133.22,163.56c0-1.56,0-2.77,0-4,.09-36,.25-71.95.19-107.92,0-3.61,1.18-4.94,4.56-4.93,9.71,0,19.41.07,29.12,0,3.36,0,4,1.65,4,4.7-.11,25.23-.06,50.47-.06,75.71,0,4.91,0,4.91,4.94,4.91,11.49,0,23,.07,34.48-.06,2.32,0,3.61.56,3.6,3q0,13-.15,26.07c0,2.1-1.2,2.56-3.19,2.55C185.06,163.54,159.46,163.56,133.22,163.56Z"/>
</svg>