<svg xmlns="http://www.w3.org/2000/svg" viewBox="0 0 674.85 163.93">
      <path d="M0,160.34V0H93.64c2.67,7.69,2.82,20.63.32,34H87.37c-14.62,0-29.25.08-43.87-.06-3.16,0-4.49.7-4.37,4.14.24,6.74.19,13.5,0,20.24-.08,3.06.82,4.15,4,4.1,11.87-.17,23.75,0,35.62-.13,2.95,0,3.86.79,4.39,3.86a78.74,78.74,0,0,1,0,26.81c-.5,3-1.56,3.67-4.27,3.65-11.62-.1-23.25.08-34.87-.12-3.68-.07-5,.85-4.91,4.77.21,18.12,0,36.24.15,54.36,0,3.38-.51,4.8-4.49,5.29A133.14,133.14,0,0,1,0,160.34Z M155,163.51c-11.32-.32-22.14-2.33-32-8.14-14-8.26-21.14-21.16-24.09-36.62a80.3,80.3,0,0,1,2.52-41.37q9.87-29.15,40.29-34.68c13.08-2.38,25.88-1.64,38.27,3.19C195.84,52,205.34,64,209.78,80.06c4.67,16.91,4.62,33.85-1.67,50.34-7,18.41-20.83,28.67-40.13,31.71C163.68,162.79,159.32,163.05,155,163.51Zm-20.24-62c1.1,6.79,1.64,12.39,3,17.8,1.94,8,7.82,13.16,14.57,13.68,9.72.75,16-2.28,19.3-10.77,5.1-13.06,5.18-26.39-.5-39.37-3-6.86-8.7-10-16.19-9.92S141.79,76.11,139.31,83C137.08,89.26,136.07,95.94,134.75,101.5Z M270,160.29a107.76,107.76,0,0,1-37,.06c-.06-1.27-.16-2.48-.16-3.7,0-35.85,0-71.71-.08-107.56,0-3.41.69-4.8,4.38-5,14.2-.71,28.37-2.32,42.57-2.48,12.14-.14,24.15,1.81,34.77,8.59,12.56,8,16.67,20,15.67,34.13-.7,10-4.46,18.64-12.26,25.2-1.94,1.63-1,3-.23,4.56q11,21.28,21.95,42.56c.55,1.07,1,2.19,1.74,3.78a138,138,0,0,1-39.49.14,5,5,0,0,1-3.21-2.52c-7.57-16-15-32.09-22.5-48.11-1-2.17-.56-3.26,1.52-4.44,4.69-2.66,9-5.78,11.65-10.76a20.85,20.85,0,0,0,1.77-13.84c-.9-5-5.17-8.41-11-9.26C271,70.3,270,71.08,270,80.24 M447.27,156.17c-21.86,7.1-43.79,10.33-66.15,3-15.09-4.93-25.5-15-30.49-30.1-6.76-20.39-6.27-40.66,3.66-60,7.73-15,20.51-23.61,37.21-26.55,12.26-2.16,24.12-1.5,35.43,4,14.74,7.15,22.52,19.52,25.83,35.12,2.16,10.17,1.7,20.36,0,30.52-.16.93-1.48,1.9-2.49,2.39-.81.39-2,.09-3,.09H389.21c-1.47,0-2.94.12-4.43.19.65,7.09,5.65,13.67,12.9,15A77.75,77.75,0,0,0,418.4,131c6.36-.55,12.57-2.93,18.81-4.59,1.74-.46,2.88-.59,3.9,1.41C444.84,135.12,447.79,147.84,447.27,156.17Zm-27.7-67.49c.73-7.18-3.45-14.5-9.48-17.07-10-4.28-23.24.5-25.87,13.11-.64,3.08-.14,4.05,3,4,8.22-.12,16.44,0,24.67,0Z M504.1,163.93a136.42,136.42,0,0,1-35-6.42c-2.16-.69-3.59-1.68-2.91-4.23,2.26-8.54,4.49-17.09,6.8-25.62.66-2.41,2.38-2.07,4.17-1.31,10.92,4.66,22.35,6,34.08,5.1a17.1,17.1,0,0,0,6.71-2.07c4.21-2.33,4.15-7.2-.28-9a167.07,167.07,0,0,0-17.42-5.55c-9.27-2.57-18.1-6-24.62-13.39C465.26,89.7,466,68.7,477,56.64c9.86-10.83,22.79-14.4,36.71-15.11,13-.66,25.55,2.12,38,5.62,2.64.74,4.13,1.8,3.17,5-2.3,7.6-4.42,15.26-6.52,22.92-.76,2.77-2.3,2.6-4.53,1.84-9.13-3.09-18.39-5.66-28.15-5.31a14.11,14.11,0,0,0-6.12,1.3c-1.52.83-3.3,2.74-3.36,4.24a5.9,5.9,0,0,0,2.95,4.53c4,1.74,8.25,2.75,12.4,4.06,6.29,2,12.77,3.52,18.81,6.09,12.05,5.12,17.5,14.87,18.23,27.72,1.36,23.74-14.19,36.34-32.4,41C519,162.36,511.48,162.83,504.1,163.93Z M672.94,75.81c-9.5,0-19.1.14-28.69-.08-3.43-.08-4.44.94-4.42,4.38.13,25.48.07,51,.07,76.44,0,1.22,0,2.44,0,4-6.43.45-12.49,1.2-18.55,1.22s-12.14-.68-18.46-1.07c-.07-1.44-.18-2.52-.18-3.6q0-37.84,0-75.69c0-5.62,0-5.62-5.79-5.62-8.24,0-16.49-.1-24.73.07-2.42.05-3.71-.88-3.74-3-.11-8.58-.09-17.16,0-25.74,0-1.73.88-2.84,3.07-2.83q50.4.13,100.79.11a2.49,2.49,0,0,1,.71.22C675.47,51.27,675.48,68.44,672.94,75.81Z"/>
</svg>